PathFileType	4	(X/Y/Z)	8_coords_data.trc
DataRate	CameraRate	NumFrames	NumMarkers	Units	OrigDataRate	OrigDataStartFrame	OrigNumFrames
30.0	30.0	7	21	m	30.0	20	59
Frame#	Time	THUMB_TIP	THUMB_IP	THUMB_MCP	THUMB_CMC	INDEX_TIP	INDEX_DIP	INDEX_PIP	INDEX_MCP	MIDDLE_TIP	MIDDLE_DIP	MIDDLE_PIP	MIDDLE_MCP	RING_TIP	RING_DIP	RING_PIP	RING_MCP	PINKY_TIP	PINKY_DIP	PINKY_PIP	PINKY_MCP	WRIST
X1	Y1	Z1	X2	Y2	Z2	X3	Y3	Z3	X4	Y4	Z4	X5	Y5	Z5	X6	Y6	Z6	X7	Y7	Z7	X8	Y8	Z8	X9	Y9	Z9	X10	Y10	Z10	X11	Y11	Z11	X12	Y12	Z12	X13	Y13	Z13	X14	Y14	Z14	X15	Y15	Z15	X16	Y16	Z16	X17	Y17	Z17	X18	Y18	Z18	X19	Y19	Z19	X20	Y20	Z20	X21	Y21	Z21
18	0.6333333333333304	0.5490656803048397	-0.026603302675032525	-0.12427184342876313	0.5262041756473794	-0.025021900542394504	-0.12258342046877657	0.495877887329626	-0.02128967785620428	-0.116649892792159	0.47663782648343644	-0.025646372317664756	-0.07664077793061276	0.559618246822575	0.07332789273186896	-0.1515538092455952	0.5486372889052745	0.06074442518361278	-0.14454846074031302	0.5323662307133558	0.046713508473991916	-0.13149488365957104	0.5069262464511872	0.021586668726776226	-0.10836297454989387	0.5118552562605128	-0.015547978992238143	-0.10937733286254467	0.5276259144551717	-0.0177864406082765	-0.11799566389011369	0.5468922268938954	0.004078575871208745	-0.11836957479571211	0.5185899145378111	0.022698736203336067	-0.089241981941092	0.5247464074052673	-0.02362026852563226	-0.10299565062888556	0.5418329624595339	-0.01972163030605767	-0.10722060700858863	0.5582425374956548	-0.0018873866677833195	-0.10148950065949763	0.5302005716223355	0.01202718490119492	-0.07590134554797409	0.6040323169485593	0.011421986560548159	-0.06934643082670536	0.5875461142099848	0.006817101481832233	-0.06933407467684591	0.5669907927599708	0.0025627585801989428	-0.06889664404015575	0.532288466971705	-0.007247486093929778	-0.0695220521619368	0.4622830810018609	-0.023011742144276925	-0.051989820119430985
19	0.6666666666666637	0.5495207159136777	-0.02679289156774567	-0.1238112576107936	0.5266833059009381	-0.02503507820917783	-0.12197746479085282	0.49627653007980466	-0.021319416277373104	-0.1164600523020253	0.4766747784802038	-0.025625762588738277	-0.07662141884561596	0.5609954064498744	0.07119325922132053	-0.15237979585871553	0.5496267781642405	0.059104812286728814	-0.14512557352874486	0.5329345594972014	0.04582694626232048	-0.13181850988534055	0.5068962844640749	0.021675553277497817	-0.108316285646092	0.5112530895821726	-0.01500782426350733	-0.10821898510768989	0.5267484088554152	-0.01777302085634669	-0.11717715280109835	0.5464995409717178	0.003621875190203183	-0.11842645391839889	0.5185934996367887	0.022711702011471435	-0.08922064473688139	0.524154204870899	-0.02348444134451566	-0.10215804416294716	0.5411785048155425	-0.019816539532643174	-0.10681848488172817	0.5579509925492234	-0.0021412353969270104	-0.10167579512504817	0.5301812359273897	0.012039918445307496	-0.07593756816849555	0.6041719995207865	0.010724646707102381	-0.07040898564684173	0.5876325063942452	0.006323902762598199	-0.07012859332882404	0.5670445839415212	0.002271461104063399	-0.06940251848089624	0.5322729597028575	-0.007307802027414878	-0.06963771342786332	0.4622830810018609	-0.023011742144276925	-0.051989820119430985
20	0.6999999999999968	0.5499266252899292	-0.027298986531266722	-0.12403157690996956	0.5271609928490333	-0.025220646924684842	-0.12170639217628829	0.49676048317355825	-0.021385371696285294	-0.11623650411584548	0.4767576477464599	-0.025541128447603367	-0.07658166505804205	0.5625976632943493	0.06802451508232027	-0.1538242544521664	0.5507094542585443	0.056741057935306205	-0.14612009448936053	0.5334849416457914	0.04468724636386001	-0.13233489863100634	0.5066884155028967	0.022084367371658253	-0.10815449040581204	0.5105073747166651	-0.01595576241424701	-0.10767760310594603	0.5261828681664145	-0.017639983223017075	-0.11659064441484696	0.5460417002686134	0.0036178902333362517	-0.11836241010204515	0.5184467528345075	0.023017444292635636	-0.08906524130693372	0.5237130536942631	-0.023605838517299582	-0.10150847528422172	0.5406124288187586	-0.01959232948407552	-0.10633577946376288	0.5576003882496199	-0.0019588818148461584	-0.10179147130168012	0.5300595911665182	0.012324186589492525	-0.07586427926350511	0.6042966945377959	0.010107141448168377	-0.0716182667206825	0.5876961260946807	0.005981521986927585	-0.07098550181451221	0.5670731688312253	0.002202656145650961	-0.06987833169961549	0.5322356575940843	-0.007133807570604445	-0.06962992260732176	0.4622830810018608	-0.023011742144276925	-0.051989820119430985
21	0.7333333333333302	0.5497805157823992	-0.028146568565249108	-0.1253598538865492	0.5271764944973522	-0.025617992469151085	-0.12209419550401976	0.49689555905731575	-0.021478395316633647	-0.11619939404076336	0.47682785266911776	-0.02540435229826654	-0.07655391482691797	0.5639453446311594	0.06421315322615861	-0.1556906269966441	0.5515235599611715	0.05397937716189094	-0.14738586372013357	0.5338049527967068	0.04344426639005433	-0.13299585905799005	0.5062947639615052	0.022664744012020566	-0.10799511798912662	0.5104458950890706	-0.017418227926027097	-0.1086805934839288	0.5264211465269906	-0.01765126079191659	-0.11720919461064659	0.545718048620204	0.00415197893308783	-0.11849677260786914	0.5181865059622409	0.02336910993212571	-0.08902027423987134	0.5241444569740763	-0.024243924929938654	-0.10245857320895174	0.5409089969490198	-0.01925074632848167	-0.10681957846949328	0.5574456482962131	-0.0012466659655729906	-0.1020685542107355	0.5298585302167446	0.012634403094831992	-0.07597281371904342	0.6042950512694591	0.009855479443232729	-0.07313600756082289	0.5876569930151062	0.005982796716529681	-0.07205095179126542	0.5670252955308145	0.0024309621476136245	-0.07046049616103714	0.5321628978079266	-0.00677452657474753	-0.0695912128966899	0.462283081001861	-0.023011742144276925	-0.051989820119430985
22	0.7666666666666633	0.5486370854939818	-0.02992181135391092	-0.12828790073553514	0.5263964212719275	-0.02670522130954034	-0.12349140165304953	0.49644806426009624	-0.021935847028654365	-0.11647934195131275	0.47681070058688124	-0.02533578817436477	-0.07657064179493585	0.5650213630906454	0.05973801220036018	-0.15783749306576655	0.5521202236182691	0.050717387626283084	-0.14888266573030945	0.5340052080732242	0.04184250632187658	-0.13387958182614237	0.5058772419500516	0.023021469880386003	-0.1080295875700164	0.5114205113947045	-0.018711545373927496	-0.1108051064297465	0.5276423970156641	-0.01750689492473645	-0.11876747066380175	0.5459103868404434	0.005201225944604371	-0.11894451400645369	0.517971568322505	0.023452867433357727	-0.08923848896459169	0.5255849263724331	-0.024898455858447743	-0.10428598523725964	0.5421582140916591	-0.018809070401663575	-0.10792542460816047	0.5577830976545791	-0.0002105161951235779	-0.10243572752438727	0.5297024220147233	0.012671421116712822	-0.07635408300754108	0.6042841910537439	0.009394737634618622	-0.07467115861934204	0.5876222501692763	0.0057852949610711635	-0.07313764971852607	0.5669923472886261	0.0024684381711992387	-0.07108397321760743	0.5321061882429536	-0.006571391690618267	-0.06962766483356123	0.462283081001861	-0.023011742144276925	-0.051989820119430985
23	0.7999999999999965	0.5460549301897321	-0.03221356178696955	-0.13303864322590758	0.5245109239031948	-0.028270475806882467	-0.12608825718775918	0.49522727652049203	-0.022705012335386687	-0.11712647096441207	0.4766832904468652	-0.02536512191942253	-0.0766427162286906	0.565910330118374	0.0548476011627842	-0.1599828985918324	0.5526192349701334	0.047101525692035295	-0.15042543530067198	0.5342170185914552	0.03987310988290238	-0.13489745184361673	0.5055668011961677	0.02299971203672102	-0.10828749915054993	0.513636007515661	-0.01986808892954217	-0.1138512865960668	0.5300258444932888	-0.01723743128688293	-0.12109372294124111	0.5466899306520205	0.006625945886429507	-0.11959138730011656	0.5178859522279812	0.023171710342301644	-0.08971302679425425	0.528112668573503	-0.025417362604386096	-0.1069330714985899	0.544390957583878	-0.018133989589556254	-0.10957310642668427	0.5585901774841195	0.0011889963207215581	-0.1028511759944507	0.529632294749667	0.012388886740729355	-0.07695283017628081	0.6042000755440062	0.009212803564853322	-0.07597851206994917	0.5875483495894572	0.005749119412848058	-0.07404902643130065	0.5669476659461565	0.0025215045879606324	-0.07159823982883867	0.5320833352091149	-0.0065127666586274335	-0.06966334027039872	0.4622830810018609	-0.023011742144276925	-0.051989820119430985
24	0.8333333333333297	0.5418579599335456	-0.033460363309957164	-0.13933422373868853	0.5214402584555892	-0.0291348535885817	-0.12972134529322055	0.4932264015268364	-0.02306300430189867	-0.11806240351260937	0.4763658473478454	-0.025350837128959358	-0.07682676924159647	0.5667301533883856	0.05007531936775317	-0.16177051584971588	0.5531407762624178	0.04348993251147332	-0.1517724405708755	0.5345293020240972	0.03770081200659786	-0.1358945016789298	0.5054097426501415	0.022587085859766987	-0.10874192099448529	0.517328357334177	-0.020843036737541176	-0.11791794039731798	0.533802868291024	-0.016717203236160105	-0.12420824934454881	0.5480217517361972	0.008427116139516189	-0.12033576865298043	0.5179729568711877	0.02248703728266238	-0.09041025335901946	0.5319672529458815	-0.025830693608462907	-0.11042493492444412	0.5477248054322313	-0.01715626211444321	-0.11163066204759091	0.5598119155281723	0.002905675651942441	-0.10316895999739616	0.5296763265174311	0.011758069806030558	-0.07770914407668758	0.6040898204198798	0.009289305641097978	-0.07684820837095989	0.5874713980200015	0.005840321206511234	-0.07462727538925948	0.5669123247963189	0.0025629668151667673	-0.07190781305696078	0.5321124997473504	-0.006649620957618119	-0.06967535833403324	0.4622830810018608	-0.023011742144276925	-0.051989820119430985
